<svg xmlns="http://www.w3.org/2000/svg"
     width="80" height="50" viewBox="0 0 80 50">
  <path d="M 40 0 C 54.0013 0 61.002 0 66.3498 2.7248 A 25 25 0 0 1 76.6506 12.5 C 80 18.3013 80 26.0897 80 41.6667 L 80 41.6667 C 80 44.7821 80 46.3397 79.3301 47.5 A 5 5 0 0 1 78.5355 48.5355 C 77.0711 50 74.714 50 70 50 L 10 50 C 5.286 50 2.9289 50 1.4645 48.5355 A 5 5 0 0 1 0.6699 47.5 C 0 46.3397 0 44.7821 0 41.6667 L 0 41.6667 C 0 26.0897 0 18.3013 3.3494 12.5 A 25 25 0 0 1 13.6502 2.7248 C 18.998 0 25.9987 0 40 0 Z" fill="black"/>
</svg>
